<svg width="142" height="39" viewBox="0 0 142 39" fill="none" xmlns="http://www.w3.org/2000/svg">
<g clip-path="url(#clip0_0_4763)">
<path d="M35.5113 12.7006H26.4338V3.48645C26.4338 2.09834 25.3098 0.967285 23.9176 0.967285H13.9843C12.5978 0.967285 11.4681 2.09263 11.4681 3.48645V8.43911H15.3422V4.84601H22.554V23.537H19.3703V27.4157H26.4281V16.5793H34.1477V23.537H30.285V27.4157H35.5056C36.892 27.4157 38.0217 26.2904 38.0217 24.8965V15.2197C38.0217 13.8316 36.8977 12.7006 35.5113 12.7006Z" fill="#247CFF"/>
<path d="M22.5597 35.1104H15.3479V16.5794H18.5887V12.7007H11.4738V23.5314H3.87406V16.5794H7.67396V12.7007H2.51614C1.12399 12.7007 0 13.8317 0 15.2199V24.8967C0 26.2848 1.12399 27.4158 2.51614 27.4158H11.4738V36.4757C11.4738 37.8638 12.5978 38.9949 13.99 38.9949H23.9233C25.3098 38.9949 26.4395 37.8695 26.4395 36.4757V31.266H22.5654V35.1104H22.5597Z" fill="#247CFF"/>
</g>
<path d="M52.2066 11.55C54.0654 11.55 55.6961 11.9133 57.0987 12.6399C58.5182 13.3666 59.6082 14.4058 60.3686 15.7577C61.1459 17.0927 61.5346 18.6474 61.5346 20.4217C61.5346 22.196 61.1459 23.7507 60.3686 25.0857C59.6082 26.4038 58.5182 27.4261 57.0987 28.1528C55.6961 28.8794 54.0654 29.2427 52.2066 29.2427H46.0217V11.55H52.2066ZM52.0799 26.2264C53.9387 26.2264 55.3751 25.7194 56.389 24.7055C57.4029 23.6916 57.9099 22.2636 57.9099 20.4217C57.9099 18.5798 57.4029 17.1434 56.389 16.1126C55.3751 15.0649 53.9387 14.541 52.0799 14.541H49.5704V26.2264H52.0799Z" fill="#242424"/>
<path d="M70.4265 29.4709C69.0747 29.4709 67.858 29.1751 66.7764 28.5837C65.6949 27.9754 64.8416 27.122 64.2163 26.0236C63.608 24.9252 63.3038 23.6578 63.3038 22.2214C63.3038 20.785 63.6164 19.5176 64.2417 18.4192C64.8838 17.3208 65.7541 16.4759 66.8525 15.8844C67.9509 15.2761 69.176 14.9719 70.5279 14.9719C71.8798 14.9719 73.105 15.2761 74.2034 15.8844C75.3018 16.4759 76.1636 17.3208 76.7888 18.4192C77.431 19.5176 77.7521 20.785 77.7521 22.2214C77.7521 23.6578 77.4225 24.9252 76.7635 26.0236C76.1213 27.122 75.2426 27.9754 74.1273 28.5837C73.0289 29.1751 71.7953 29.4709 70.4265 29.4709ZM70.4265 26.3784C71.0687 26.3784 71.6686 26.2264 72.2262 25.9222C72.8008 25.6011 73.257 25.1279 73.595 24.5027C73.933 23.8775 74.102 23.117 74.102 22.2214C74.102 20.8864 73.7471 19.864 73.0374 19.1543C72.3445 18.4277 71.4911 18.0644 70.4772 18.0644C69.4633 18.0644 68.6099 18.4277 67.9171 19.1543C67.2412 19.864 66.9032 20.8864 66.9032 22.2214C66.9032 23.5564 67.2327 24.5872 67.8918 25.3138C68.5677 26.0236 69.4126 26.3784 70.4265 26.3784Z" fill="#242424"/>
<path d="M79.4426 22.2214C79.4426 20.7681 79.7384 19.5007 80.3298 18.4192C80.9213 17.3208 81.7408 16.4759 82.7886 15.8844C83.8363 15.2761 85.0361 14.9719 86.3879 14.9719C88.1285 14.9719 89.5649 15.4113 90.6971 16.29C91.8462 17.1518 92.6151 18.3685 93.0037 19.9401H89.1762C88.9734 19.3317 88.627 18.8586 88.1369 18.5206C87.6638 18.1657 87.0723 17.9883 86.3626 17.9883C85.3487 17.9883 84.546 18.3601 83.9546 19.1036C83.3631 19.8303 83.0674 20.8695 83.0674 22.2214C83.0674 23.5564 83.3631 24.5956 83.9546 25.3392C84.546 26.0658 85.3487 26.4291 86.3626 26.4291C87.799 26.4291 88.7368 25.787 89.1762 24.5027H93.0037C92.6151 26.0236 91.8462 27.2318 90.6971 28.1274C89.548 29.0231 88.1116 29.4709 86.3879 29.4709C85.0361 29.4709 83.8363 29.1751 82.7886 28.5837C81.7408 27.9754 80.9213 27.1304 80.3298 26.0489C79.7384 24.9505 79.4426 23.6747 79.4426 22.2214Z" fill="#242424"/>
<path d="M94.6909 22.1707C94.6909 20.7512 94.9698 19.4923 95.5274 18.3939C96.102 17.2955 96.8793 16.4505 97.8594 15.8591C98.8395 15.2676 99.9295 14.9719 101.129 14.9719C102.042 14.9719 102.912 15.1747 103.74 15.5803C104.568 15.9689 105.227 16.4928 105.717 17.1518V10.4854H109.317V29.2427H105.717V27.1642C105.278 27.8571 104.661 28.4147 103.867 28.8372C103.073 29.2596 102.152 29.4709 101.104 29.4709C99.921 29.4709 98.8395 29.1667 97.8594 28.5584C96.8793 27.95 96.102 27.0966 95.5274 25.9982C94.9698 24.8829 94.6909 23.6071 94.6909 22.1707ZM105.743 22.2214C105.743 21.3596 105.574 20.6245 105.236 20.0161C104.898 19.3909 104.441 18.9177 103.867 18.5967C103.292 18.2587 102.676 18.0897 102.016 18.0897C101.357 18.0897 100.749 18.2502 100.191 18.5713C99.6338 18.8924 99.1775 19.3655 98.8226 19.9908C98.4847 20.5991 98.3157 21.3258 98.3157 22.1707C98.3157 23.0156 98.4847 23.7592 98.8226 24.4013C99.1775 25.0266 99.6338 25.5082 100.191 25.8461C100.766 26.1841 101.374 26.3531 102.016 26.3531C102.676 26.3531 103.292 26.1926 103.867 25.8715C104.441 25.5335 104.898 25.0604 105.236 24.452C105.574 23.8268 105.743 23.0832 105.743 22.2214Z" fill="#242424"/>
<path d="M119.018 29.4709C117.666 29.4709 116.45 29.1751 115.368 28.5837C114.287 27.9754 113.433 27.122 112.808 26.0236C112.2 24.9252 111.895 23.6578 111.895 22.2214C111.895 20.785 112.208 19.5176 112.833 18.4192C113.475 17.3208 114.346 16.4759 115.444 15.8844C116.542 15.2761 117.768 14.9719 119.12 14.9719C120.471 14.9719 121.697 15.2761 122.795 15.8844C123.893 16.4759 124.755 17.3208 125.38 18.4192C126.023 19.5176 126.344 20.785 126.344 22.2214C126.344 23.6578 126.014 24.9252 125.355 26.0236C124.713 27.122 123.834 27.9754 122.719 28.5837C121.62 29.1751 120.387 29.4709 119.018 29.4709ZM119.018 26.3784C119.66 26.3784 120.26 26.2264 120.818 25.9222C121.392 25.6011 121.849 25.1279 122.187 24.5027C122.525 23.8775 122.694 23.117 122.694 22.2214C122.694 20.8864 122.339 19.864 121.629 19.1543C120.936 18.4277 120.083 18.0644 119.069 18.0644C118.055 18.0644 117.202 18.4277 116.509 19.1543C115.833 19.864 115.495 20.8864 115.495 22.2214C115.495 23.5564 115.824 24.5872 116.483 25.3138C117.159 26.0236 118.004 26.3784 119.018 26.3784Z" fill="#242424"/>
<path d="M128.034 22.2214C128.034 20.7681 128.33 19.5007 128.921 18.4192C129.513 17.3208 130.332 16.4759 131.38 15.8844C132.428 15.2761 133.628 14.9719 134.98 14.9719C136.72 14.9719 138.156 15.4113 139.289 16.29C140.438 17.1518 141.207 18.3685 141.595 19.9401H137.768C137.565 19.3317 137.219 18.8586 136.729 18.5206C136.255 18.1657 135.664 17.9883 134.954 17.9883C133.94 17.9883 133.138 18.3601 132.546 19.1036C131.955 19.8303 131.659 20.8695 131.659 22.2214C131.659 23.5564 131.955 24.5956 132.546 25.3392C133.138 26.0658 133.94 26.4291 134.954 26.4291C136.391 26.4291 137.328 25.787 137.768 24.5027H141.595C141.207 26.0236 140.438 27.2318 139.289 28.1274C138.14 29.0231 136.703 29.4709 134.98 29.4709C133.628 29.4709 132.428 29.1751 131.38 28.5837C130.332 27.9754 129.513 27.1304 128.921 26.0489C128.33 24.9505 128.034 23.6747 128.034 22.2214Z" fill="#242424"/>
<defs>
<clipPath id="clip0_0_4763">
<rect width="38.0217" height="38.0217" fill="white" transform="translate(0 0.967285)"/>
</clipPath>
</defs>
</svg>
